<mxfile host="app.diagrams.net" modified="2024-07-21T08:54:33.243Z" agent="Mozilla/5.0 (Macintosh; Intel Mac OS X 10_15_7) AppleWebKit/537.36 (KHTML, like Gecko) Chrome/126.0.0.0 Safari/537.36" etag="YSFwvqMt83p8V56ViEwK" version="24.7.1" type="device">
  <diagram name="Page-1" id="yE11Em2MSEOL71LbrN_B">
    <mxGraphModel dx="954" dy="513" grid="1" gridSize="10" guides="1" tooltips="1" connect="1" arrows="1" fold="1" page="1" pageScale="1" pageWidth="2339" pageHeight="3300" math="0" shadow="0">
      <root>
        <mxCell id="0" />
        <mxCell id="1" parent="0" />
      </root>
    </mxGraphModel>
  </diagram>
</mxfile>
